<svg xmlns="http://www.w3.org/2000/svg" viewBox="0 0 220 260" role="img" aria-label="Funny person sharing a pitch">
  <rect width="220" height="260" rx="20" fill="#eefaf0"/>
  <circle cx="110" cy="85" r="42" fill="#ffd8b5"/>
  <path d="M66 72c10-34 78-30 90 2-6-42-82-48-90-2z" fill="#111827"/>
  <circle cx="95" cy="86" r="4" fill="#1f2937"/>
  <circle cx="125" cy="86" r="4" fill="#1f2937"/>
  <path d="M92 106c8 11 28 11 36 0" stroke="#1f2937" stroke-width="3" fill="none" stroke-linecap="round"/>
  <circle cx="76" cy="84" r="6" fill="#111827"/>
  <circle cx="144" cy="84" r="6" fill="#111827"/>
  <rect x="62" y="138" width="96" height="88" rx="20" fill="#34d399"/>
  <rect x="72" y="148" width="76" height="18" rx="9" fill="#6ee7b7"/>
  <path d="M78 232c12-16 52-16 64 0" stroke="#10b981" stroke-width="8" fill="none" stroke-linecap="round"/>
  <path d="M30 36c18-12 34-4 40 8-16-4-27 1-40-8z" fill="#fbbf24"/>
</svg>
